#N canvas 853 200 506 524 10;
#X declare -path rj;
#X declare -path starter;
#X obj -1 64 nbx 5 14 -1e+37 1e+37 0 0 empty empty empty 0 -8 0 10
-262144 -1 -1 95 256;
#X obj -3 232 *~ 0.5;
#X obj -3 328 dac~;
#X obj -3 298 +~;
#X obj 35 297 +~;
#X obj -4 -8 declare -path rj;
#X obj -4 14 declare -path starter;
#X obj 86 112 saw~;
#X obj 42 110 saw~;
#X obj 45 87 - 0.5;
#X obj 0 85 + 0.5;
#X obj 0 109 saw~;
#N canvas 91 234 1125 666 delay 0;
#X msg 630 297 feedback \$1;
#X obj 630 243 / 100;
#X obj 630 137 vsl 15 100 0 100 0 0 empty empty feedback 0 -9 1 10
-262144 -1 -1 0 1;
#X obj 877 141 vsl 15 100 0 2000 0 0 empty empty delay_time(ms) 0 -9
1 10 -262144 -1 -1 0 1;
#X msg 881 304 delay \$1;
#X floatatom 884 250 8 0 0 0 - - -;
#X floatatom 647 267 5 0 0 0 - - -;
#X obj 953 113 vsl 15 128 0 127 0 0 empty empty delay_frequency 0 -9
1 10 -262144 -1 -1 0 1;
#X msg 953 297 delayfreq \$1;
#X obj 953 247 mtof;
#X floatatom 991 250 5 0 0 1 pitch - -;
#X obj 717 105 vsl 15 128 0 127 0 0 empty empty lowpass_cutoff_fr.
0 -9 1 10 -262144 -1 -1 0 1;
#X obj 717 239 mtof;
#X floatatom 731 267 8 0 0 0 - - -;
#X msg 717 297 lpfreq \$1;
#X obj 953 317 s \$0-trigger;
#X floatatom 969 277 8 0 0 1 freq - -;
#X obj 670 362 hsl 50 15 0 1 0 0 empty empty empty -2 -8 0 10 -262144
-1 -1 0 1;
#X floatatom 667 380 5 0 0 0 - - -;
#X msg 667 397 dry \$1;
#X msg 798 297 input \$1;
#X obj 798 243 / 100;
#X obj 798 137 vsl 15 100 0 100 0 0 empty empty inputlevel 0 -9 1 10
-262144 -1 -1 0 1;
#X floatatom 815 267 5 0 0 0 - - -;
#X obj 398 293 inlet~;
#X obj 472 408 outlet~;
#X obj 479 357 e_fbdelay mydelay 2000;
#X obj 553 319 sig~ 0;
#X msg 466 198 500;
#X obj 412 86 loadbang;
#X msg 460 131 feedback 0.4 \, input 1 \, lpfreq 2000 \, input 1 \,
dry 0 \, delay 500;
#X connect 1 0 0 0;
#X connect 1 0 6 0;
#X connect 2 0 1 0;
#X connect 3 0 4 0;
#X connect 3 0 5 0;
#X connect 7 0 9 0;
#X connect 7 0 10 0;
#X connect 8 0 15 0;
#X connect 9 0 8 0;
#X connect 9 0 16 0;
#X connect 11 0 12 0;
#X connect 12 0 14 0;
#X connect 12 0 13 0;
#X connect 17 0 18 0;
#X connect 18 0 19 0;
#X connect 21 0 23 0;
#X connect 21 0 20 0;
#X connect 22 0 21 0;
#X connect 24 0 26 0;
#X connect 26 0 25 0;
#X connect 27 0 26 1;
#X connect 28 0 27 0;
#X connect 29 0 28 0;
#X connect 29 0 30 0;
#X connect 30 0 26 2;
#X restore -2 209 pd delay;
#X obj 43 232 line;
#X obj -1 39 r freq;
#X obj 61 39 r note;
#X obj 61 61 mtof;
#X obj 203 132 r release;
#X obj 148 101 r play;
#X msg 166 157 0 500;
#X msg 146 127 0.5 200;
#X obj 59 155 r cutoff;
#X obj 80 134 nbx 5 14 -1e+37 1e+37 0 0 empty empty empty 0 -8 0 10
-262144 -1 -1 2482 256;
#X obj 155 191 r rez;
#X obj 0 183 e_resonzq 2000 1 1;
#X obj 143 235 line;
#X msg 142 213 \$1 1000;
#X obj 57 265 rev3~ 100 92 3000 40;
#X connect 0 0 10 0;
#X connect 0 0 8 0;
#X connect 0 0 9 0;
#X connect 1 0 3 0;
#X connect 1 0 4 0;
#X connect 1 0 27 0;
#X connect 1 0 27 1;
#X connect 3 0 2 0;
#X connect 4 0 2 1;
#X connect 7 0 24 0;
#X connect 8 0 24 0;
#X connect 9 0 7 0;
#X connect 10 0 11 0;
#X connect 11 0 24 0;
#X connect 12 0 1 0;
#X connect 13 0 1 1;
#X connect 14 0 0 0;
#X connect 15 0 16 0;
#X connect 16 0 0 0;
#X connect 17 0 19 0;
#X connect 18 0 20 0;
#X connect 19 0 13 0;
#X connect 20 0 13 0;
#X connect 21 0 24 1;
#X connect 22 0 24 1;
#X connect 23 0 26 0;
#X connect 24 0 12 0;
#X connect 25 0 24 2;
#X connect 26 0 25 0;
#X connect 27 0 3 1;
#X connect 27 1 4 1;
