#N canvas 689 132 480 414 10;
#X obj 187 182 osc~;
#X obj 162 159 mtof;
#X obj 186 285 dac~;
#X obj 203 232 *~ 0;
#X obj 109 90 r pitch;
#X obj 309 87 r volume;
#X text 248 58 And this inlet controls volume;
#X text 101 319 Audio finally comes out here and is played out your
phones speakers;
#X text 45 70 This inlet controls the pitch;
#X obj 125 115 * 50;
#X obj 139 136 + 40;
#X obj 344 140 loadbang;
#X obj 344 232 print;
#X obj 344 209 realtime;
#X obj 344 162 metro 1000;
#X obj 344 185 t b b;
#X connect 0 0 3 0;
#X connect 1 0 0 0;
#X connect 3 0 2 0;
#X connect 3 0 2 1;
#X connect 4 0 9 0;
#X connect 5 0 3 1;
#X connect 9 0 10 0;
#X connect 10 0 1 0;
#X connect 11 0 14 0;
#X connect 13 0 12 0;
#X connect 14 0 15 0;
#X connect 15 0 13 0;
#X connect 15 1 13 1;
