#N canvas 80 229 506 363 10;
#N canvas 0 0 450 300 (subpatch) 0;
#X array \$0-transition 35 float 0;
#X coords 0 1 34 -1 200 140 1;
#X restore 283 35 graph;
#X obj 289 213 loadbang;
#X obj 289 233 symbol \$0-transition;
#X obj 183 22 inlet~;
#X obj 226 22 inlet;
#X obj 172 302 outlet~;
#X obj 172 261 +~;
#X obj 43 139 *~;
#X obj 22 20 bang~;
#X obj 22 41 samplerate~;
#X obj 43 117 /~;
#X obj 43 223 tabread4~ \$0-transition;
#X obj 22 84 sig~;
#X obj 186 73 -~ 0.5;
#X obj 43 159 clip~ -0.5 0.5;
#X msg 289 254 \; \$1 sinesum 32 0.75 0 0.25;
#X obj 43 202 +~ 17;
#X obj 43 181 *~ 16;
#X obj 22 62 / 8;
#X text 12 324 Based on Section 10.4.3 of Miller Puckette's "Theory
and Technique of Electronic Music".;
#X obj 186 51 phasor~ \$1;
#X obj 172 282 *~ 1.41421;
#X connect 1 0 2 0;
#X connect 2 0 15 0;
#X connect 3 0 10 1;
#X connect 3 0 20 0;
#X connect 4 0 20 1;
#X connect 6 0 21 0;
#X connect 7 0 14 0;
#X connect 8 0 9 0;
#X connect 9 0 18 0;
#X connect 10 0 7 0;
#X connect 11 0 6 0;
#X connect 12 0 10 0;
#X connect 13 0 6 1;
#X connect 13 0 7 1;
#X connect 14 0 17 0;
#X connect 16 0 11 0;
#X connect 17 0 16 0;
#X connect 18 0 12 0;
#X connect 20 0 13 0;
#X connect 21 0 5 0;
