#N canvas 0 0 723 514 10;
#X obj 307 142 samplerate~;
#X obj 307 204 / 1000;
#X obj 307 46 loadbang;
#X obj 135 134 inlet;
#X obj 135 228 outlet;
#X obj 135 183 / 44.1;
#X obj 421 40 inlet;
#X obj 421 115 route current float;
#X obj 307 83 f \$1;
#X obj 307 105 select 0;
#X msg 374 105 bang;
#X floatatom 312 229 5 0 0 0 - - -;
#X connect 0 0 1 0;
#X connect 1 0 5 1;
#X connect 1 0 11 0;
#X connect 2 0 8 0;
#X connect 3 0 5 0;
#X connect 5 0 4 0;
#X connect 6 0 7 0;
#X connect 7 0 10 0;
#X connect 7 1 1 0;
#X connect 8 0 9 0;
#X connect 9 0 0 0;
#X connect 9 1 1 0;
#X connect 10 0 0 0;
